<mxfile host="app.diagrams.net" modified="2023-05-10T14:59:33.820Z" agent="Mozilla/5.0 (Windows NT 10.0; Win64; x64) AppleWebKit/537.36 (KHTML, like Gecko) Chrome/113.0.0.0 Safari/537.36" etag="YibUdyQSI2Iim0G7zw5C" version="21.1.4" type="device">
  <diagram name="Page-1" id="sX5NJfuN1iYVTtbZMuSL">
    <mxGraphModel dx="472" dy="754" grid="1" gridSize="10" guides="1" tooltips="1" connect="1" arrows="1" fold="1" page="1" pageScale="1" pageWidth="827" pageHeight="1169" math="0" shadow="0">
      <root>
        <mxCell id="0" />
        <mxCell id="1" parent="0" />
        <mxCell id="x0PgtFpDB0HuazEEPzR_-1" value="User&lt;br&gt;" style="shape=umlActor;verticalLabelPosition=bottom;verticalAlign=top;html=1;outlineConnect=0;" vertex="1" parent="1">
          <mxGeometry x="50" y="253.75" width="30" height="60" as="geometry" />
        </mxCell>
        <mxCell id="x0PgtFpDB0HuazEEPzR_-5" value="" style="rounded=0;whiteSpace=wrap;html=1;fillColor=none;" vertex="1" parent="1">
          <mxGeometry x="110" y="50" width="510" height="640" as="geometry" />
        </mxCell>
        <mxCell id="x0PgtFpDB0HuazEEPzR_-6" value="Queue Simulator" style="text;html=1;strokeColor=none;fillColor=none;align=center;verticalAlign=middle;whiteSpace=wrap;rounded=0;" vertex="1" parent="1">
          <mxGeometry x="305" y="50" width="120" height="30" as="geometry" />
        </mxCell>
        <mxCell id="x0PgtFpDB0HuazEEPzR_-7" value="Simulate and analyze queuing-based systems for determining and minimizing clients waiting time" style="ellipse;whiteSpace=wrap;html=1;" vertex="1" parent="1">
          <mxGeometry x="130" y="235.63" width="160" height="96.25" as="geometry" />
        </mxCell>
        <mxCell id="x0PgtFpDB0HuazEEPzR_-9" value="" style="endArrow=none;html=1;rounded=0;exitX=0.5;exitY=0.5;exitDx=0;exitDy=0;exitPerimeter=0;entryX=0;entryY=0.5;entryDx=0;entryDy=0;" edge="1" parent="1" source="x0PgtFpDB0HuazEEPzR_-1" target="x0PgtFpDB0HuazEEPzR_-7">
          <mxGeometry width="50" height="50" relative="1" as="geometry">
            <mxPoint x="250" y="310" as="sourcePoint" />
            <mxPoint x="300" y="260" as="targetPoint" />
          </mxGeometry>
        </mxCell>
        <mxCell id="x0PgtFpDB0HuazEEPzR_-10" value="&amp;lt;&amp;lt;include&amp;gt;&amp;gt;" style="html=1;verticalAlign=bottom;endArrow=open;dashed=1;endSize=8;elbow=vertical;exitX=1;exitY=0.5;exitDx=0;exitDy=0;entryX=-0.004;entryY=0.528;entryDx=0;entryDy=0;entryPerimeter=0;rounded=0;strokeColor=default;" edge="1" parent="1" source="x0PgtFpDB0HuazEEPzR_-7" target="x0PgtFpDB0HuazEEPzR_-12">
          <mxGeometry x="-0.0909" y="11" relative="1" as="geometry">
            <mxPoint x="620" y="250" as="sourcePoint" />
            <mxPoint x="570" y="260" as="targetPoint" />
            <mxPoint as="offset" />
          </mxGeometry>
        </mxCell>
        <mxCell id="x0PgtFpDB0HuazEEPzR_-11" value="Input and output files are given as program arguments&amp;nbsp;" style="ellipse;whiteSpace=wrap;html=1;" vertex="1" parent="1">
          <mxGeometry x="400" y="70" width="160" height="96.25" as="geometry" />
        </mxCell>
        <mxCell id="x0PgtFpDB0HuazEEPzR_-12" value="Input is read from the text file given as program argument" style="ellipse;whiteSpace=wrap;html=1;" vertex="1" parent="1">
          <mxGeometry x="390" y="180" width="160" height="96.25" as="geometry" />
        </mxCell>
        <mxCell id="x0PgtFpDB0HuazEEPzR_-13" value="Valid input, all attributes needed for the queue simulator are set" style="ellipse;whiteSpace=wrap;html=1;" vertex="1" parent="1">
          <mxGeometry x="390" y="313.75" width="160" height="96.25" as="geometry" />
        </mxCell>
        <mxCell id="x0PgtFpDB0HuazEEPzR_-14" value="Simulation begins" style="ellipse;whiteSpace=wrap;html=1;" vertex="1" parent="1">
          <mxGeometry x="390" y="443.75" width="160" height="96.25" as="geometry" />
        </mxCell>
        <mxCell id="x0PgtFpDB0HuazEEPzR_-15" value="Result of the simulation is successfully displayed in the output file given as second program argument" style="ellipse;whiteSpace=wrap;html=1;" vertex="1" parent="1">
          <mxGeometry x="390" y="570" width="160" height="96.25" as="geometry" />
        </mxCell>
        <mxCell id="x0PgtFpDB0HuazEEPzR_-17" value="&amp;lt;&amp;lt;include&amp;gt;&amp;gt;" style="html=1;verticalAlign=bottom;endArrow=open;dashed=1;endSize=8;elbow=vertical;exitX=0.949;exitY=0.722;exitDx=0;exitDy=0;entryX=0;entryY=0.5;entryDx=0;entryDy=0;rounded=0;strokeColor=default;exitPerimeter=0;" edge="1" parent="1" source="x0PgtFpDB0HuazEEPzR_-7" target="x0PgtFpDB0HuazEEPzR_-13">
          <mxGeometry x="0.1015" y="18" relative="1" as="geometry">
            <mxPoint x="300" y="294" as="sourcePoint" />
            <mxPoint x="399" y="241" as="targetPoint" />
            <mxPoint as="offset" />
          </mxGeometry>
        </mxCell>
        <mxCell id="x0PgtFpDB0HuazEEPzR_-18" value="&amp;lt;&amp;lt;include&amp;gt;&amp;gt;" style="html=1;verticalAlign=bottom;endArrow=open;dashed=1;endSize=8;elbow=vertical;exitX=0.922;exitY=0.225;exitDx=0;exitDy=0;entryX=0;entryY=0.5;entryDx=0;entryDy=0;rounded=0;strokeColor=default;exitPerimeter=0;" edge="1" parent="1" source="x0PgtFpDB0HuazEEPzR_-7" target="x0PgtFpDB0HuazEEPzR_-11">
          <mxGeometry x="0.0097" y="26" relative="1" as="geometry">
            <mxPoint x="300" y="294" as="sourcePoint" />
            <mxPoint x="399" y="241" as="targetPoint" />
            <mxPoint as="offset" />
          </mxGeometry>
        </mxCell>
        <mxCell id="x0PgtFpDB0HuazEEPzR_-19" value="&amp;lt;&amp;lt;include&amp;gt;&amp;gt;" style="html=1;verticalAlign=bottom;endArrow=open;dashed=1;endSize=8;elbow=vertical;exitX=1;exitY=1;exitDx=0;exitDy=0;entryX=0;entryY=0.5;entryDx=0;entryDy=0;rounded=0;strokeColor=default;" edge="1" parent="1" source="x0PgtFpDB0HuazEEPzR_-7" target="x0PgtFpDB0HuazEEPzR_-14">
          <mxGeometry x="0.2113" y="23" relative="1" as="geometry">
            <mxPoint x="292" y="315" as="sourcePoint" />
            <mxPoint x="400" y="372" as="targetPoint" />
            <mxPoint as="offset" />
          </mxGeometry>
        </mxCell>
        <mxCell id="x0PgtFpDB0HuazEEPzR_-20" value="&amp;lt;&amp;lt;include&amp;gt;&amp;gt;" style="html=1;verticalAlign=bottom;endArrow=open;dashed=1;endSize=8;elbow=vertical;exitX=0.736;exitY=0.967;exitDx=0;exitDy=0;entryX=0;entryY=0.5;entryDx=0;entryDy=0;rounded=0;strokeColor=default;exitPerimeter=0;" edge="1" parent="1" source="x0PgtFpDB0HuazEEPzR_-7" target="x0PgtFpDB0HuazEEPzR_-15">
          <mxGeometry x="0.2076" y="-37" relative="1" as="geometry">
            <mxPoint x="277" y="327" as="sourcePoint" />
            <mxPoint x="400" y="502" as="targetPoint" />
            <mxPoint x="-1" as="offset" />
          </mxGeometry>
        </mxCell>
      </root>
    </mxGraphModel>
  </diagram>
</mxfile>
